# xmcd
#
# Track frame offsets: 
#        150
#        12525
#        24965
#        37905
#        54210
#        69672
#        79210
#        97500
#        106145
#        116155
#        134992
#        148377
#        161100
#        174530
#        186330
#        202430
#        214345
#        228175
#        239712
#        255265
#
# Disc length: 3643 seconds
#
# Revision: 0
# Processed by: cddbd v1.5.2PL0 Copyright (c) Steve Scherf et al.
# Submitted via: ExactAudioCopyFreeDBPlugin 1.0
#
DISCID=260e3914
DTITLE=Various Artist - The Very Best Of Country Music, Vol. 1
DYEAR=1994
DGENRE=Country
TTITLE0=Patsy Cline - Crazy
TTITLE1=Jim Reeves - I Love You Because
TTITLE2=Ray Stevens - Misty
TTITLE3=Waylon Jennings - Rose In Paradise
TTITLE4=Don Williams - 'Till The Rivers All Run Dry
TTITLE5=Willie Nelson - San Antonio Rose
TTITLE6=The Bellamy Brothers - Satin Sheets
TTITLE7=Don Gibson - Blue Blue Day
TTITLE8=Charly Pride - Is Anybody Goin' To San Antone
TTITLE9=The Desert Rose Band - I Still Believe In You
TTITLE10=Loretta Lynn - Coal Miner's Daughter
TTITLE11=Conway Twitty - I Can't Stop Loving You
TTITLE12=Oak Ridge Boys - Leaving Louisiana In The Broad Daylight
TTITLE13=George Strait - Fool Hearted Memory
TTITLE14=Lee Greenwood - Somebody's Gonna Love You
TTITLE15=Eddy Arnold - Make The World Go Away
TTITLE16=Merle Haggard - Never No Mo' Blues
TTITLE17=Porter Wagoner - Misery Loves Company
TTITLE18=Ed Bruce - You're The Best Break This Old Heart Ever Had
TTITLE19=Hank Williams jr. - Family Tradition
EXTD=
EXTT0=
EXTT1=
EXTT2=
EXTT3=
EXTT4=
EXTT5=
EXTT6=
EXTT7=
EXTT8=
EXTT9=
EXTT10=
EXTT11=
EXTT12=
EXTT13=
EXTT14=
EXTT15=
EXTT16=
EXTT17=
EXTT18=
EXTT19=
PLAYORDER=
